<svg width="143" height="117" viewBox="0 0 143 117" fill="none" xmlns="http://www.w3.org/2000/svg">
<path d="M85.8467 66.3444C82.07 66.3444 78.9946 72.0388 78.9946 79.075C78.9946 86.1092 82.07 91.8193 85.8467 91.8193C89.6214 91.8193 92.6909 86.1112 92.6909 79.075C92.6968 72.0349 89.6273 66.3444 85.8467 66.3444Z" fill="#FF4848"/>
<path d="M57.1709 66.3444C53.3864 66.3444 50.3169 72.0388 50.3169 79.075C50.3169 86.1092 53.3864 91.8193 57.1709 91.8193C60.9495 91.8193 64.0171 86.1112 64.0171 79.075C64.0171 72.0388 60.9495 66.3444 57.1709 66.3444Z" fill="#FF4848"/>
<path d="M131.39 30.3447C132.544 27.522 136.328 16.1352 130.191 0.752333C130.191 0.752333 120.787 -2.22316 99.4861 12.3311C90.5675 9.87666 80.9828 9.51035 71.5039 9.51035C62.025 9.51035 52.4482 9.87666 43.5022 12.3389C22.2094 -2.22512 12.8089 0.750376 12.8089 0.750376C6.67968 16.1411 10.4681 27.52 11.6179 30.3447C4.39957 38.1468 0 48.1076 0 60.319C0 106.293 29.7784 116.689 71.3374 116.689C112.916 116.689 143 106.295 143 60.319C143 48.1076 138.6 38.1448 131.38 30.3447H131.39ZM71.5078 107.892C41.988 107.892 18.0547 106.509 18.0547 77.9095C18.0547 71.079 21.4161 64.701 27.179 59.4317C36.7774 50.6364 53.0535 55.2848 71.5098 55.2848C89.9798 55.2848 106.232 50.6364 115.841 59.4219C121.609 64.701 124.981 71.0594 124.981 77.9016C124.981 106.511 101.032 107.892 71.5117 107.892H71.5078Z" fill="#FF4848"/>
</svg>
